<?xml version="1.0" encoding="UTF-8"?><svg id="Layer_1" xmlns="http://www.w3.org/2000/svg" viewBox="0 0 555.03 620"><path d="M212.58,361.87c8.48,9.91,25.83,33.26,26.32,65.21.14,9.01.62,40.28-18.34,51.28-7.57,4.39-16.07,4.29-18.17,4.25-4.99-.11-17-1.41-25.98-11.38-7.95-8.82-8.72-19.09-8.83-22.25-.15-22.03,6.44-33.68,12.67-40.29,8.17-8.66,16.99-9.98,24.52-21.01,6.19-9.06,7.59-18.94,7.81-25.81Z" style="fill:#c42031; stroke-width:0px;"/><path d="M185.63,367.25c-4.58,2.92-8.92,3.07-15.85,3.4-13.01.61-19.51.92-21.17,1.36-12.45,3.31-17.52,12.87-19.47,11.43-2.08-1.53,2.41-13.26,10.3-22.42,3.73-4.33,10.78-12.51,23.09-14.94,10.04-1.98,18.26.91,21.74,2.38,5.08,2.73,8.05,7.23,7.47,11.32-.55,3.92-4.19,6.24-6.11,7.47Z" style="fill:#c42031; stroke-width:0px;"/><path d="M159.26,328.3c1.67,1.22,4.49,3.21,4.98,6.57.28,1.9-.31,3.42-.48,3.82-.89,2.13-2.55,3.19-3.14,3.54-6.55,1.63-15.05,4.84-22.42,11.77-9.77,9.2-12.48,20.21-14.38,19.58-1.84-.61-.53-11.42,2.83-20.94.97-2.77,5.84-15.99,16.87-23.55,5.29-3.63,8.57-3.61,10.42-3.28,2.51.44,4.37,1.8,5.32,2.49Z" style="fill:#c42031; stroke-width:0px;"/><path d="M178.22,341.26c-13.22-7.69-17.24-21.65-18.34-26.89-2.34-11.12.54-20.66,2.83-28.25,1.94-6.42,4.27-10.74,5.21-12.4,2.79-4.93,5.85-8.64,8.26-11.21,2.6-2.67,6.62-6.71,11.72-11.49,8.61-8.08,10.63-9.2,13.75-13.53,3.24-4.5,3.54-6.73,7.98-17.21,0,0,4.38-10.35,9-19.47,7.55-14.93,11.55-22.81,19.92-29.55,9.03-7.26,19.36-10.13,20.49-8.43,1.25,1.87-9.8,7.6-12.4,19.92-1.73,8.23.89,16.58,2.49,16.64,1.04.04,1.21-3.43,3.85-8.04,2.6-4.54,5.81-7.08,9.17-9.74,7.83-6.19,16.29-9.32,21.96-10.92,2.07-.75,5.22-1.84,9.11-3,6.28-1.87,6.54-1.55,8.11-2.42,6.14-3.4,8.7-14.67,8.7-14.67,1.82-8.23.4-12.98,1.46-13.23,1.45-.34,6.18,7.94,7.42,17.87,1.87,14.88-4.86,27.14-7.92,32.72-3.92,7.13-8.33,12.21-11.32,15.28-2.32,5.76-.71,8.52-.28,9.17,3.69,5.62,16.48,2.1,18.34,1.58,5.34-1.47,9.48-4.14,12.11-5.83,3.33-2.14,3.9-3.03,8.53-6.26,4.92-3.44,7.39-5.16,9.98-6.25,10-4.21,22.18.69,22.08,2.49-.08,1.37-7.2-.45-14.89,4.42-6.23,3.94-9.12,9.93-11.49,14.83-.87,1.8-2.66,5.56-1.64,6.4.86.7,3.05-1.21,7.81-3.45,0,0,1.88-.89,7.36-2.83,9.5-3.37,18.79-1.23,29.43-3.91,9.33-2.34,15.84-7.4,18.79-10.02,2.43-2.15,11.57-10.25,13.75-22.87,1.68-9.71-1.7-16.68,0-17.32,1.76-.66,6.78,6.28,9.62,13.81,6.27,16.64.3,31.96-.28,33.4-1.53,3.76-4.95,12.17-13.02,17.83-3.5,2.46-6,3.08-10.25,6.91-2.04,1.83-5.8,5.29-8.6,10.98-3.07,6.24-3.25,11.6-3.45,18-.09,2.75-.25,7.62.91,7.87,1.36.3,2.51-6.32,8.09-12.79,4.51-5.23,10.64-8.87,12-7.7.91.78-.82,3.23-2.15,9.06-.81,3.55-.96,6.12-1.19,10.02-.58,9.95,1.81,18.8,2.6,27.51.56,6.09,1.65,17.99-3.62,30.4-1.8,4.24-6.34,14.53-17.32,21-8.79,5.18-17.33,5.32-23.66,5.43-9.44.16-16.99-1.9-25.98-4.36-12.24-3.35-18.7-6.69-19.42-5.43-.72,1.27,5.66,5.02,13.81,13.19,11.3,11.33,17.05,22.17,19.08,26.26,3.07,6.22,5.15,12.24,6.57,17.77,2.51,10.77,4.7,26.46,1.75,44.72-2.81,17.43-9.59,32.72-11.55,32.26-1.75-.41,1.99-12.97.34-33.79-.66-8.39-1.6-19.17-6.96-31.92-4.33-10.32-9.52-17.07-13.42-22.08-4.77-6.12-13.35-15.83-15.62-14.43-1.43.88,1.1,5.25,1.19,12.57.09,7.27-2.27,12.66-4.25,17.15-1.03,2.36-10.22,22.48-31.25,30.4-9.39,3.54-14.46,2.12-15.79,1.7-5.67-1.79-9.02-6.05-11.21-8.83-2.55-3.24-5.67-7.21-5.09-12.06.29-2.45,1.47-4.65,4.42-7.81,7.67-8.23,13.12-7.72,20.21-13.75,8.5-7.23,11.54-17.2,10.87-17.66-.45-.31-2.67,3.62-7.98,6.96-5.31,3.35-11.91,4.98-12.74,3.57-.79-1.34,4.27-4.37,8.32-10.19,4.93-7.07,6.09-14.97,6.17-21.06-.08-2.34-.55-6.63-3-11.27-2.14-4.06-4.88-6.67-6.63-8.09-1.92-1.21-4.67-2.76-8.15-4.19-3.08-1.26-6.39-2.62-10.87-3.06-2.44-.24-6.73-.66-11.52,1.09-6.15,2.25-10.72,7.21-12.88,9.55-2.33,2.53-3.39,4.27-4.13,3.96-1.14-.47-.61-5.44,1.23-9.45,2.34-5.12,6.43-7.81,7.94-8.78,1.5-.96,5.15-3.06,12.91-3.96,11.34-1.32,17.98,1.49,18.23.68.47-1.52-21.6-15.69-35.66-7.7-8.22,4.67-11.21,11.83-11.21,11.83-1.39,3.34-1.59,6.42-4.53,10.13,0,0-2.45,3.08-6.17,5.15-8.23,4.58-20.29,1.59-28.08-2.94Z" style="fill:#c42031; stroke-width:0px;"/><circle cx="245.95" cy="356.69" r="11.92" style="fill:#c42031; stroke-width:0px;"/></svg>